{
	"asset":{
		"generator":"Khronos glTF Blender I/O v3.5.30",
		"version":"2.0"
	},
	"scene":0,
	"scenes":[
		{
			"name":"Scene",
			"nodes":[
				0,
				1
			]
		}
	],
	"nodes":[
		{
			"mesh":0,
			"name":"ESCALIER GAUCHE. MDD"
		},
		{
			"mesh":1,
			"name":"ESCALIER DROIT MDD"
		}
	],
	"animations":[
		{
			"channels":[
				{
					"sampler":0,
					"target":{
						"node":0,
						"path":"weights"
					}
				}
			],
			"name":"Key.003Action",
			"samplers":[
				{
					"input":45,
					"interpolation":"LINEAR",
					"output":46
				}
			]
		},
		{
			"channels":[
				{
					"sampler":0,
					"target":{
						"node":1,
						"path":"weights"
					}
				}
			],
			"name":"Key.004Action",
			"samplers":[
				{
					"input":45,
					"interpolation":"LINEAR",
					"output":47
				}
			]
		}
	],
	"materials":[
		{
			"doubleSided":true,
			"name":"Material.005",
			"pbrMetallicRoughness":{}
		}
	],
	"meshes":[
		{
			"extras":{
				"targetNames":[
					"frame_0000",
					"frame_0001",
					"frame_0002",
					"frame_0003",
					"frame_0004",
					"frame_0005",
					"frame_0006",
					"frame_0007",
					"frame_0008",
					"frame_0009",
					"frame_0010",
					"frame_0011",
					"frame_0012",
					"frame_0013",
					"frame_0014",
					"frame_0015",
					"frame_0016",
					"frame_0017",
					"frame_0018",
					"frame_0019",
					"frame_0020"
				]
			},
			"name":"Cube.008",
			"primitives":[
				{
					"attributes":{
						"POSITION":0
					},
					"indices":1,
					"material":0,
					"targets":[
						{
							"POSITION":2
						},
						{
							"POSITION":3
						},
						{
							"POSITION":4
						},
						{
							"POSITION":5
						},
						{
							"POSITION":6
						},
						{
							"POSITION":7
						},
						{
							"POSITION":8
						},
						{
							"POSITION":9
						},
						{
							"POSITION":10
						},
						{
							"POSITION":11
						},
						{
							"POSITION":12
						},
						{
							"POSITION":13
						},
						{
							"POSITION":14
						},
						{
							"POSITION":15
						},
						{
							"POSITION":16
						},
						{
							"POSITION":17
						},
						{
							"POSITION":18
						},
						{
							"POSITION":19
						},
						{
							"POSITION":20
						},
						{
							"POSITION":21
						},
						{
							"POSITION":22
						}
					]
				}
			],
			"weights":[
				0,
				0,
				0,
				0,
				0,
				0,
				0,
				0,
				0,
				0,
				0,
				0,
				0,
				0,
				0,
				0,
				0,
				0,
				0,
				0,
				1
			]
		},
		{
			"extras":{
				"targetNames":[
					"frame_0000",
					"frame_0001",
					"frame_0002",
					"frame_0003",
					"frame_0004",
					"frame_0005",
					"frame_0006",
					"frame_0007",
					"frame_0008",
					"frame_0009",
					"frame_0010",
					"frame_0011",
					"frame_0012",
					"frame_0013",
					"frame_0014",
					"frame_0015",
					"frame_0016",
					"frame_0017",
					"frame_0018",
					"frame_0019",
					"frame_0020"
				]
			},
			"name":"Cube.009",
			"primitives":[
				{
					"attributes":{
						"POSITION":23
					},
					"indices":1,
					"material":0,
					"targets":[
						{
							"POSITION":24
						},
						{
							"POSITION":25
						},
						{
							"POSITION":26
						},
						{
							"POSITION":27
						},
						{
							"POSITION":28
						},
						{
							"POSITION":29
						},
						{
							"POSITION":30
						},
						{
							"POSITION":31
						},
						{
							"POSITION":32
						},
						{
							"POSITION":33
						},
						{
							"POSITION":34
						},
						{
							"POSITION":35
						},
						{
							"POSITION":36
						},
						{
							"POSITION":37
						},
						{
							"POSITION":38
						},
						{
							"POSITION":39
						},
						{
							"POSITION":40
						},
						{
							"POSITION":41
						},
						{
							"POSITION":42
						},
						{
							"POSITION":43
						},
						{
							"POSITION":44
						}
					]
				}
			],
			"weights":[
				0,
				0,
				0,
				0,
				0,
				0,
				0,
				0,
				0,
				0,
				0,
				0,
				0,
				0,
				0,
				0,
				0,
				0,
				0,
				0,
				1
			]
		}
	],
	"accessors":[
		{
			"bufferView":0,
			"componentType":5126,
			"count":144,
			"max":[
				-0.8107779026031494,
				0.5896492600440979,
				3.4071409702301025
			],
			"min":[
				-7.113523006439209,
				-3.921698570251465,
				-4.696189880371094
			],
			"type":"VEC3"
		},
		{
			"bufferView":1,
			"componentType":5123,
			"count":648,
			"type":"SCALAR"
		},
		{
			"bufferView":2,
			"componentType":5126,
			"count":144,
			"max":[
				0,
				0,
				0
			],
			"min":[
				0,
				0,
				0
			],
			"type":"VEC3"
		},
		{
			"bufferView":3,
			"componentType":5126,
			"count":144,
			"max":[
				0,
				0,
				0
			],
			"min":[
				0,
				0,
				0
			],
			"type":"VEC3"
		},
		{
			"bufferView":4,
			"componentType":5126,
			"count":144,
			"max":[
				0.033046722412109375,
				0.04882001876831055,
				0.04458045959472656
			],
			"min":[
				0,
				0,
				0
			],
			"type":"VEC3"
		},
		{
			"bufferView":5,
			"componentType":5126,
			"count":144,
			"max":[
				0.12737369537353516,
				0.18818140029907227,
				0.17182636260986328
			],
			"min":[
				0,
				0,
				0
			],
			"type":"VEC3"
		},
		{
			"bufferView":6,
			"componentType":5126,
			"count":144,
			"max":[
				0.27577686309814453,
				0.40742969512939453,
				0.37201786041259766
			],
			"min":[
				0,
				0,
				0
			],
			"type":"VEC3"
		},
		{
			"bufferView":7,
			"componentType":5126,
			"count":144,
			"max":[
				0.47104358673095703,
				0.6959142684936523,
				0.6354303359985352
			],
			"min":[
				0,
				0,
				0
			],
			"type":"VEC3"
		},
		{
			"bufferView":8,
			"componentType":5126,
			"count":144,
			"max":[
				0.7059650421142578,
				1.042982578277588,
				0.9523341655731201
			],
			"min":[
				0,
				0,
				0
			],
			"type":"VEC3"
		},
		{
			"bufferView":9,
			"componentType":5126,
			"count":144,
			"max":[
				0.9733295440673828,
				1.437983751296997,
				1.313004732131958
			],
			"min":[
				0,
				0,
				0
			],
			"type":"VEC3"
		},
		{
			"bufferView":10,
			"componentType":5126,
			"count":144,
			"max":[
				1.2659282684326172,
				1.8702664375305176,
				1.707714319229126
			],
			"min":[
				0,
				0,
				0
			],
			"type":"VEC3"
		},
		{
			"bufferView":11,
			"componentType":5126,
			"count":144,
			"max":[
				1.5765538215637207,
				2.32917857170105,
				2.1267411708831787
			],
			"min":[
				0,
				0,
				0
			],
			"type":"VEC3"
		},
		{
			"bufferView":12,
			"componentType":5126,
			"count":144,
			"max":[
				1.8979907035827637,
				2.804067850112915,
				2.5603559017181396
			],
			"min":[
				0,
				0,
				0
			],
			"type":"VEC3"
		},
		{
			"bufferView":13,
			"componentType":5126,
			"count":144,
			"max":[
				2.2230348587036133,
				3.284282922744751,
				2.998833417892456
			],
			"min":[
				0,
				0,
				0
			],
			"type":"VEC3"
		},
		{
			"bufferView":14,
			"componentType":5126,
			"count":144,
			"max":[
				2.5444748401641846,
				3.7591733932495117,
				3.432448148727417
			],
			"min":[
				0,
				0,
				0
			],
			"type":"VEC3"
		},
		{
			"bufferView":15,
			"componentType":5126,
			"count":144,
			"max":[
				2.855097770690918,
				4.218084335327148,
				3.8514747619628906
			],
			"min":[
				0,
				0,
				0
			],
			"type":"VEC3"
		},
		{
			"bufferView":16,
			"componentType":5126,
			"count":144,
			"max":[
				3.1476974487304688,
				4.65036678314209,
				4.246184349060059
			],
			"min":[
				0,
				0,
				0
			],
			"type":"VEC3"
		},
		{
			"bufferView":17,
			"componentType":5126,
			"count":144,
			"max":[
				3.4150631427764893,
				5.0453691482543945,
				4.606855392456055
			],
			"min":[
				0,
				0,
				0
			],
			"type":"VEC3"
		},
		{
			"bufferView":18,
			"componentType":5126,
			"count":144,
			"max":[
				3.649982452392578,
				5.3924360275268555,
				4.923758506774902
			],
			"min":[
				0,
				0,
				0
			],
			"type":"VEC3"
		},
		{
			"bufferView":19,
			"componentType":5126,
			"count":144,
			"max":[
				3.845249652862549,
				5.68092155456543,
				5.187170028686523
			],
			"min":[
				0,
				0,
				0
			],
			"type":"VEC3"
		},
		{
			"bufferView":20,
			"componentType":5126,
			"count":144,
			"max":[
				3.993652105331421,
				5.9001688957214355,
				5.387362003326416
			],
			"min":[
				0,
				0,
				0
			],
			"type":"VEC3"
		},
		{
			"bufferView":21,
			"componentType":5126,
			"count":144,
			"max":[
				4.0879807472229,
				6.039530277252197,
				5.514609336853027
			],
			"min":[
				0,
				0,
				0
			],
			"type":"VEC3"
		},
		{
			"bufferView":22,
			"componentType":5126,
			"count":144,
			"max":[
				4.121026039123535,
				6.088350296020508,
				5.559186935424805
			],
			"min":[
				0,
				0,
				0
			],
			"type":"VEC3"
		},
		{
			"bufferView":23,
			"componentType":5126,
			"count":144,
			"max":[
				7.11357307434082,
				0.5896492600440979,
				3.4071409702301025
			],
			"min":[
				0.8108277320861816,
				-3.921698570251465,
				-4.696189880371094
			],
			"type":"VEC3"
		},
		{
			"bufferView":24,
			"componentType":5126,
			"count":144,
			"max":[
				0,
				0,
				0
			],
			"min":[
				0,
				0,
				0
			],
			"type":"VEC3"
		},
		{
			"bufferView":25,
			"componentType":5126,
			"count":144,
			"max":[
				0,
				0,
				0
			],
			"min":[
				0,
				0,
				0
			],
			"type":"VEC3"
		},
		{
			"bufferView":26,
			"componentType":5126,
			"count":144,
			"max":[
				0,
				0.04882001876831055,
				0.04457664489746094
			],
			"min":[
				-0.03304576873779297,
				0,
				0
			],
			"type":"VEC3"
		},
		{
			"bufferView":27,
			"componentType":5126,
			"count":144,
			"max":[
				0,
				0.18818092346191406,
				0.17182636260986328
			],
			"min":[
				-0.12737369537353516,
				0,
				0
			],
			"type":"VEC3"
		},
		{
			"bufferView":28,
			"componentType":5126,
			"count":144,
			"max":[
				0,
				0.40742969512939453,
				0.37201786041259766
			],
			"min":[
				-0.27577686309814453,
				0,
				0
			],
			"type":"VEC3"
		},
		{
			"bufferView":29,
			"componentType":5126,
			"count":144,
			"max":[
				0,
				0.6959121227264404,
				0.6354293823242188
			],
			"min":[
				-0.4710426330566406,
				0,
				0
			],
			"type":"VEC3"
		},
		{
			"bufferView":30,
			"componentType":5126,
			"count":144,
			"max":[
				0,
				1.042982578277588,
				0.9523341655731201
			],
			"min":[
				-0.7059640884399414,
				0,
				0
			],
			"type":"VEC3"
		},
		{
			"bufferView":31,
			"componentType":5126,
			"count":144,
			"max":[
				0,
				1.437983751296997,
				1.3130042552947998
			],
			"min":[
				-0.9733295440673828,
				0,
				0
			],
			"type":"VEC3"
		},
		{
			"bufferView":32,
			"componentType":5126,
			"count":144,
			"max":[
				0,
				1.8702661991119385,
				1.707714319229126
			],
			"min":[
				-1.2659282684326172,
				0,
				0
			],
			"type":"VEC3"
		},
		{
			"bufferView":33,
			"componentType":5126,
			"count":144,
			"max":[
				0,
				2.3291776180267334,
				2.1267406940460205
			],
			"min":[
				-1.5765538215637207,
				0,
				0
			],
			"type":"VEC3"
		},
		{
			"bufferView":34,
			"componentType":5126,
			"count":144,
			"max":[
				0,
				2.8040671348571777,
				2.560354471206665
			],
			"min":[
				-1.8979907035827637,
				0,
				0
			],
			"type":"VEC3"
		},
		{
			"bufferView":35,
			"componentType":5126,
			"count":144,
			"max":[
				0,
				3.284282684326172,
				2.998833417892456
			],
			"min":[
				-2.2230348587036133,
				0,
				0
			],
			"type":"VEC3"
		},
		{
			"bufferView":36,
			"componentType":5126,
			"count":144,
			"max":[
				0,
				3.7591731548309326,
				3.432448148727417
			],
			"min":[
				-2.5444746017456055,
				0,
				0
			],
			"type":"VEC3"
		},
		{
			"bufferView":37,
			"componentType":5126,
			"count":144,
			"max":[
				0,
				4.218084335327148,
				3.8514726161956787
			],
			"min":[
				-2.855097770690918,
				0,
				0
			],
			"type":"VEC3"
		},
		{
			"bufferView":38,
			"componentType":5126,
			"count":144,
			"max":[
				0,
				4.65036678314209,
				4.246184349060059
			],
			"min":[
				-3.1476974487304688,
				0,
				0
			],
			"type":"VEC3"
		},
		{
			"bufferView":39,
			"componentType":5126,
			"count":144,
			"max":[
				0,
				5.045368671417236,
				4.606855392456055
			],
			"min":[
				-3.4150631427764893,
				0,
				0
			],
			"type":"VEC3"
		},
		{
			"bufferView":40,
			"componentType":5126,
			"count":144,
			"max":[
				0,
				5.3924360275268555,
				4.923757553100586
			],
			"min":[
				-3.6499826908111572,
				0,
				0
			],
			"type":"VEC3"
		},
		{
			"bufferView":41,
			"componentType":5126,
			"count":144,
			"max":[
				0,
				5.680920600891113,
				5.187170028686523
			],
			"min":[
				-3.8452506065368652,
				0,
				0
			],
			"type":"VEC3"
		},
		{
			"bufferView":42,
			"componentType":5126,
			"count":144,
			"max":[
				0,
				5.900168418884277,
				5.387361526489258
			],
			"min":[
				-3.993652582168579,
				0,
				0
			],
			"type":"VEC3"
		},
		{
			"bufferView":43,
			"componentType":5126,
			"count":144,
			"max":[
				0,
				6.039528846740723,
				5.514609336853027
			],
			"min":[
				-4.087981224060059,
				0,
				0
			],
			"type":"VEC3"
		},
		{
			"bufferView":44,
			"componentType":5126,
			"count":144,
			"max":[
				0,
				6.088350296020508,
				5.559186935424805
			],
			"min":[
				-4.121026039123535,
				0,
				0
			],
			"type":"VEC3"
		},
		{
			"bufferView":45,
			"componentType":5126,
			"count":22,
			"max":[
				0.875
			],
			"min":[
				0
			],
			"type":"SCALAR"
		},
		{
			"bufferView":46,
			"componentType":5126,
			"count":462,
			"type":"SCALAR"
		},
		{
			"bufferView":47,
			"componentType":5126,
			"count":462,
			"type":"SCALAR"
		}
	],
	"bufferViews":[
		{
			"buffer":0,
			"byteLength":1728,
			"byteOffset":0,
			"target":34962
		},
		{
			"buffer":0,
			"byteLength":1296,
			"byteOffset":1728,
			"target":34963
		},
		{
			"buffer":0,
			"byteLength":1728,
			"byteOffset":3024,
			"target":34962
		},
		{
			"buffer":0,
			"byteLength":1728,
			"byteOffset":4752,
			"target":34962
		},
		{
			"buffer":0,
			"byteLength":1728,
			"byteOffset":6480,
			"target":34962
		},
		{
			"buffer":0,
			"byteLength":1728,
			"byteOffset":8208,
			"target":34962
		},
		{
			"buffer":0,
			"byteLength":1728,
			"byteOffset":9936,
			"target":34962
		},
		{
			"buffer":0,
			"byteLength":1728,
			"byteOffset":11664,
			"target":34962
		},
		{
			"buffer":0,
			"byteLength":1728,
			"byteOffset":13392,
			"target":34962
		},
		{
			"buffer":0,
			"byteLength":1728,
			"byteOffset":15120,
			"target":34962
		},
		{
			"buffer":0,
			"byteLength":1728,
			"byteOffset":16848,
			"target":34962
		},
		{
			"buffer":0,
			"byteLength":1728,
			"byteOffset":18576,
			"target":34962
		},
		{
			"buffer":0,
			"byteLength":1728,
			"byteOffset":20304,
			"target":34962
		},
		{
			"buffer":0,
			"byteLength":1728,
			"byteOffset":22032,
			"target":34962
		},
		{
			"buffer":0,
			"byteLength":1728,
			"byteOffset":23760,
			"target":34962
		},
		{
			"buffer":0,
			"byteLength":1728,
			"byteOffset":25488,
			"target":34962
		},
		{
			"buffer":0,
			"byteLength":1728,
			"byteOffset":27216,
			"target":34962
		},
		{
			"buffer":0,
			"byteLength":1728,
			"byteOffset":28944,
			"target":34962
		},
		{
			"buffer":0,
			"byteLength":1728,
			"byteOffset":30672,
			"target":34962
		},
		{
			"buffer":0,
			"byteLength":1728,
			"byteOffset":32400,
			"target":34962
		},
		{
			"buffer":0,
			"byteLength":1728,
			"byteOffset":34128,
			"target":34962
		},
		{
			"buffer":0,
			"byteLength":1728,
			"byteOffset":35856,
			"target":34962
		},
		{
			"buffer":0,
			"byteLength":1728,
			"byteOffset":37584,
			"target":34962
		},
		{
			"buffer":0,
			"byteLength":1728,
			"byteOffset":39312,
			"target":34962
		},
		{
			"buffer":0,
			"byteLength":1728,
			"byteOffset":41040,
			"target":34962
		},
		{
			"buffer":0,
			"byteLength":1728,
			"byteOffset":42768,
			"target":34962
		},
		{
			"buffer":0,
			"byteLength":1728,
			"byteOffset":44496,
			"target":34962
		},
		{
			"buffer":0,
			"byteLength":1728,
			"byteOffset":46224,
			"target":34962
		},
		{
			"buffer":0,
			"byteLength":1728,
			"byteOffset":47952,
			"target":34962
		},
		{
			"buffer":0,
			"byteLength":1728,
			"byteOffset":49680,
			"target":34962
		},
		{
			"buffer":0,
			"byteLength":1728,
			"byteOffset":51408,
			"target":34962
		},
		{
			"buffer":0,
			"byteLength":1728,
			"byteOffset":53136,
			"target":34962
		},
		{
			"buffer":0,
			"byteLength":1728,
			"byteOffset":54864,
			"target":34962
		},
		{
			"buffer":0,
			"byteLength":1728,
			"byteOffset":56592,
			"target":34962
		},
		{
			"buffer":0,
			"byteLength":1728,
			"byteOffset":58320,
			"target":34962
		},
		{
			"buffer":0,
			"byteLength":1728,
			"byteOffset":60048,
			"target":34962
		},
		{
			"buffer":0,
			"byteLength":1728,
			"byteOffset":61776,
			"target":34962
		},
		{
			"buffer":0,
			"byteLength":1728,
			"byteOffset":63504,
			"target":34962
		},
		{
			"buffer":0,
			"byteLength":1728,
			"byteOffset":65232,
			"target":34962
		},
		{
			"buffer":0,
			"byteLength":1728,
			"byteOffset":66960,
			"target":34962
		},
		{
			"buffer":0,
			"byteLength":1728,
			"byteOffset":68688,
			"target":34962
		},
		{
			"buffer":0,
			"byteLength":1728,
			"byteOffset":70416,
			"target":34962
		},
		{
			"buffer":0,
			"byteLength":1728,
			"byteOffset":72144,
			"target":34962
		},
		{
			"buffer":0,
			"byteLength":1728,
			"byteOffset":73872,
			"target":34962
		},
		{
			"buffer":0,
			"byteLength":1728,
			"byteOffset":75600,
			"target":34962
		},
		{
			"buffer":0,
			"byteLength":88,
			"byteOffset":77328
		},
		{
			"buffer":0,
			"byteLength":1848,
			"byteOffset":77416
		},
		{
			"buffer":0,
			"byteLength":1848,
			"byteOffset":79264
		}
	],
	"buffers":[
		{
			"byteLength":81112,
			"uri":"data:application/octet-stream;base64,"
		}
	]
}
